{
DisplayStrings = (
"CEMNOP QRUY/Q.alt/R.alt",
EU,
E,
FP,
F,
I,
N,
H,
L,
HHJHUH,
U,
Q,
D,
O,
BR,
EPBR/R.alt,
C,
G,
/G.alt,
/G.alt_two,
M,
AHAHAH,
A,
V
);
classes = (
{
automatic = 1;
code = "A B C D E F G H I J K L M N O P Q R S T U V W X Y Z R.alt";
name = Uppercase;
}
);
copyright = AoifeMooney;
date = "2015-02-12 02:21:12 +0000";
designer = "Aoife Mooney";
designerURL = www.aoifemooney.org;
familyName = "Mercury";
featurePrefixes = (
{
automatic = 1;
code = "languagesystem DFLT dflt;\012languagesystem latn dflt;\012";
name = Languagesystems;
}
);
features = (
{
code = "sub R by R.alt;\012sub Q by Q.alt;\012sub G by G.alt;";
name = ss01;
}
);
fontMaster = (
{
ascender = 800;
capHeight = 700;
descender = "-200";
id = "B29C398E-974A-40D0-A0A0-00935056D4B4";
weight = Light;
width = Extended;
xHeight = 500;
}
);
glyphs = (
{
glyphname = A;
lastChange = "2015-02-12 19:34:02 +0000";
layers = (
{
background = {
paths = (
{
closed = 1;
nodes = (
"366 -1 LINE",
"366 25 LINE",
"10 25 LINE",
"10 -1 LINE"
);
},
{
closed = 1;
nodes = (
"224 11 LINE",
"224 487 LINE",
"199 487 LINE",
"199 11 LINE"
);
},
{
closed = 1;
nodes = (
"366 474 LINE",
"366 500 LINE",
"10 500 LINE",
"10 474 LINE"
);
},
{
closed = 1;
nodes = (
"1086 25 LINE",
"730 25 LINE",
"730 -1 LINE",
"1086 -1 LINE"
);
},
{
closed = 1;
nodes = (
"897 487 LINE",
"872 487 LINE",
"872 11 LINE",
"897 11 LINE"
);
},
{
closed = 1;
nodes = (
"879 256 LINE",
"219 256 LINE",
"219 230 LINE",
"879 230 LINE"
);
},
{
closed = 1;
nodes = (
"1086 500 LINE",
"730 500 LINE",
"730 474 LINE",
"1086 474 LINE"
);
}
);
};
layerId = "B29C398E-974A-40D0-A0A0-00935056D4B4";
name = "Light Extended";
paths = (
{
closed = 1;
nodes = (
"200 0 LINE",
"548 495 LINE",
"899 0 LINE",
"912 25 LINE",
"548 537 LINE",
"188 25 LINE"
);
},
{
closed = 1;
nodes = (
"756 216 LINE",
"336 216 LINE",
"318 190 LINE",
"774 190 LINE"
);
},
{
closed = 1;
nodes = (
"366 -1 LINE",
"366 25 LINE",
"10 25 LINE",
"10 -1 LINE"
);
},
{
closed = 1;
nodes = (
"733 25 LINE",
"733 -1 LINE",
"1085 -1 LINE",
"1086 25 LINE"
);
}
);
width = 1097;
}
);
unicode = 0041;
},
{
glyphname = B;
lastChange = "2015-02-12 17:52:16 +0000";
layers = (
{
background = {
paths = (
{
closed = 1;
nodes = (
"875 0 LINE",
"875 189 LINE",
"849 189 LINE",
"849 26 LINE",
"50 26 LINE",
"50 0 LINE"
);
}
);
};
layerId = "B29C398E-974A-40D0-A0A0-00935056D4B4";
name = "Light Extended";
paths = (
{
closed = 1;
nodes = (
"264 13 LINE",
"264 487 LINE",
"239 487 LINE",
"239 13 LINE"
);
},
{
closed = 1;
nodes = (
"693 250 LINE",
"760 250 OFFCURVE",
"841 298 OFFCURVE",
"841 377 CURVE SMOOTH",
"841 448 OFFCURVE",
"789 500 OFFCURVE",
"674 500 CURVE",
"53 500 LINE",
"53 474 LINE",
"674 474 LINE",
"775 474 OFFCURVE",
"815 430 OFFCURVE",
"815 377 CURVE SMOOTH",
"815 322 OFFCURVE",
"761 267 OFFCURVE",
"664 267 CURVE",
"255 267 LINE",
"255 242 LINE",
"665 241 LINE",
"772 241 OFFCURVE",
"855 217 OFFCURVE",
"855 140 CURVE SMOOTH",
"855 64 OFFCURVE",
"782 25 OFFCURVE",
"694 25 CURVE",
"50 25 LINE",
"50 0 LINE",
"694 0 LINE",
"801 0 OFFCURVE",
"881 54 OFFCURVE",
"881 140 CURVE SMOOTH",
"881 224 OFFCURVE",
"801 259 OFFCURVE",
"693 259 CURVE"
);
}
);
width = 941;
}
);
unicode = 0042;
},
{
glyphname = C;
lastChange = "2015-02-12 15:52:22 +0000";
layers = (
{
background = {
paths = (
{
closed = 1;
nodes = (
"1181 419 LINE",
"1215 429 LINE",
"1214 430 OFFCURVE",
"1168 506 OFFCURVE",
"1074 583 CURVE SMOOTH",
"981 660 OFFCURVE",
"839 737 OFFCURVE",
"650 737 CURVE SMOOTH",
"471 737 OFFCURVE",
"337 685 OFFCURVE",
"247 607 CURVE SMOOTH",
"157 529 OFFCURVE",
"113 426 OFFCURVE",
"113 324 CURVE SMOOTH",
"113 222 OFFCURVE",
"157 120 OFFCURVE",
"247 44 CURVE SMOOTH",
"336 -32 OFFCURVE",
"470 -81 OFFCURVE",
"648 -81 CURVE SMOOTH",
"876 -82 OFFCURVE",
"1018 -3 OFFCURVE",
"1104 76 CURVE SMOOTH",
"1181 146 OFFCURVE",
"1213 225 OFFCURVE",
"1217 237 CURVE",
"1182 249 LINE",
"1178 237 OFFCURVE",
"1152 170 OFFCURVE",
"1077 102 CURVE SMOOTH",
"998 30 OFFCURVE",
"866 -44 OFFCURVE",
"648 -45 CURVE SMOOTH",
"477 -45 OFFCURVE",
"352 3 OFFCURVE",
"271 72 CURVE SMOOTH",
"189 141 OFFCURVE",
"150 232 OFFCURVE",
"150 324 CURVE SMOOTH",
"150 415 OFFCURVE",
"189 508 OFFCURVE",
"271 580 CURVE SMOOTH",
"353 651 OFFCURVE",
"478 700 OFFCURVE",
"650 700 CURVE SMOOTH",
"829 700 OFFCURVE",
"962 627 OFFCURVE",
"1051 554 CURVE SMOOTH",
"1125 494 OFFCURVE",
"1168 441 OFFCURVE",
"1217 353 CURVE",
"1217 700 LINE",
"1181 700 LINE"
);
}
);
};
layerId = "B29C398E-974A-40D0-A0A0-00935056D4B4";
name = "Light Extended";
paths = (
{
closed = 1;
nodes = (
"828 293 LINE",
"851 300 LINE",
"851 301 OFFCURVE",
"819 354 OFFCURVE",
"753 408 CURVE SMOOTH",
"688 462 OFFCURVE",
"588 516 OFFCURVE",
"456 516 CURVE SMOOTH",
"331 516 OFFCURVE",
"237 480 OFFCURVE",
"174 425 CURVE SMOOTH",
"111 370 OFFCURVE",
"80 298 OFFCURVE",
"80 227 CURVE SMOOTH",
"80 155 OFFCURVE",
"111 84 OFFCURVE",
"174 31 CURVE SMOOTH",
"236 -22 OFFCURVE",
"330 -57 OFFCURVE",
"454 -57 CURVE SMOOTH",
"614 -57 OFFCURVE",
"714 -2 OFFCURVE",
"774 53 CURVE SMOOTH",
"828 102 OFFCURVE",
"850 158 OFFCURVE",
"853 166 CURVE",
"828 174 LINE",
"826 166 OFFCURVE",
"807 119 OFFCURVE",
"755 71 CURVE SMOOTH",
"700 21 OFFCURVE",
"607 -31 OFFCURVE",
"454 -31 CURVE SMOOTH",
"335 -31 OFFCURVE",
"247 2 OFFCURVE",
"191 50 CURVE SMOOTH",
"133 99 OFFCURVE",
"106 162 OFFCURVE",
"106 227 CURVE SMOOTH",
"106 291 OFFCURVE",
"133 356 OFFCURVE",
"191 406 CURVE SMOOTH",
"248 456 OFFCURVE",
"336 490 OFFCURVE",
"456 490 CURVE SMOOTH",
"581 490 OFFCURVE",
"674 439 OFFCURVE",
"737 388 CURVE SMOOTH",
"788 346 OFFCURVE",
"819 309 OFFCURVE",
"853 247 CURVE",
"853 500 LINE",
"828 500 LINE"
);
}
);
width = 948;
},
{
associatedMasterId = "B29C398E-974A-40D0-A0A0-00935056D4B4";
background = {
paths = (
{
closed = 1;
nodes = (
"1068 419 LINE",
"1102 429 LINE",
"1101 430 OFFCURVE",
"1055 506 OFFCURVE",
"961 583 CURVE SMOOTH",
"868 660 OFFCURVE",
"726 737 OFFCURVE",
"537 737 CURVE SMOOTH",
"358 737 OFFCURVE",
"224 685 OFFCURVE",
"134 607 CURVE SMOOTH",
"44 529 OFFCURVE",
"0 426 OFFCURVE",
"0 324 CURVE SMOOTH",
"0 222 OFFCURVE",
"44 120 OFFCURVE",
"134 44 CURVE SMOOTH",
"223 -32 OFFCURVE",
"357 -81 OFFCURVE",
"535 -81 CURVE SMOOTH",
"763 -82 OFFCURVE",
"905 -3 OFFCURVE",
"991 76 CURVE SMOOTH",
"1068 146 OFFCURVE",
"1100 225 OFFCURVE",
"1104 237 CURVE",
"1069 249 LINE",
"1065 237 OFFCURVE",
"1039 170 OFFCURVE",
"964 102 CURVE SMOOTH",
"885 30 OFFCURVE",
"753 -44 OFFCURVE",
"535 -45 CURVE SMOOTH",
"364 -45 OFFCURVE",
"239 3 OFFCURVE",
"158 72 CURVE SMOOTH",
"76 141 OFFCURVE",
"37 232 OFFCURVE",
"37 324 CURVE SMOOTH",
"37 415 OFFCURVE",
"76 508 OFFCURVE",
"158 580 CURVE SMOOTH",
"240 651 OFFCURVE",
"365 700 OFFCURVE",
"537 700 CURVE SMOOTH",
"716 700 OFFCURVE",
"849 627 OFFCURVE",
"938 554 CURVE SMOOTH",
"1012 494 OFFCURVE",
"1055 441 OFFCURVE",
"1104 353 CURVE",
"1104 700 LINE",
"1068 700 LINE"
);
}
);
};
layerId = "4CE72ED2-500C-4544-8864-BE0CB7E60B06";
name = Background;
paths = (
{
closed = 1;
nodes = (
"1068 432 LINE",
"1102 429 LINE",
"978 642 OFFCURVE",
"778 737 OFFCURVE",
"537 737 CURVE SMOOTH",
"358 737 OFFCURVE",
"224 685 OFFCURVE",
"134 607 CURVE SMOOTH",
"44 529 OFFCURVE",
"0 426 OFFCURVE",
"0 324 CURVE SMOOTH",
"0 222 OFFCURVE",
"44 120 OFFCURVE",
"134 44 CURVE SMOOTH",
"223 -32 OFFCURVE",
"357 -81 OFFCURVE",
"535 -81 CURVE SMOOTH",
"763 -82 OFFCURVE",
"905 -3 OFFCURVE",
"991 76 CURVE SMOOTH",
"1068 146 OFFCURVE",
"1100 225 OFFCURVE",
"1104 237 CURVE",
"1069 249 LINE",
"1065 237 OFFCURVE",
"1039 170 OFFCURVE",
"964 102 CURVE SMOOTH",
"885 30 OFFCURVE",
"753 -44 OFFCURVE",
"535 -45 CURVE SMOOTH",
"364 -45 OFFCURVE",
"239 3 OFFCURVE",
"158 72 CURVE SMOOTH",
"76 141 OFFCURVE",
"37 232 OFFCURVE",
"37 324 CURVE SMOOTH",
"37 415 OFFCURVE",
"76 508 OFFCURVE",
"158 580 CURVE SMOOTH",
"240 651 OFFCURVE",
"365 700 OFFCURVE",
"537 700 CURVE SMOOTH",
"773 700 OFFCURVE",
"981 598 OFFCURVE",
"1104 353 CURVE",
"1104 700 LINE",
"1068 700 LINE"
);
}
);
width = 1184;
}
);
unicode = 0043;
},
{
glyphname = D;
lastChange = "2015-02-12 16:12:48 +0000";
layers = (
{
layerId = "B29C398E-974A-40D0-A0A0-00935056D4B4";
name = "Light Extended";
paths = (
{
closed = 1;
nodes = (
"261 13 LINE",
"261 487 LINE",
"236 487 LINE",
"236 13 LINE"
);
},
{
closed = 1;
nodes = (
"832 188 OFFCURVE",
"814 134 OFFCURVE",
"757 86 CURVE SMOOTH",
"700 38 OFFCURVE",
"583 27 OFFCURVE",
"463 27 CURVE",
"50 26 LINE",
"50 0 LINE",
"464 0 LINE",
"589 0 OFFCURVE",
"711 13 OFFCURVE",
"774 66 CURVE SMOOTH",
"837 119 OFFCURVE",
"857 181 OFFCURVE",
"857 252 CURVE",
"857 323 OFFCURVE",
"837 380 OFFCURVE",
"774 433 CURVE SMOOTH",
"711 486 OFFCURVE",
"589 500 OFFCURVE",
"464 500 CURVE",
"50 500 LINE",
"50 474 LINE",
"463 473 LINE",
"583 473 OFFCURVE",
"700 461 OFFCURVE",
"757 413 CURVE SMOOTH",
"814 365 OFFCURVE",
"832 316 OFFCURVE",
"832 252 CURVE"
);
}
);
width = 937;
}
);
unicode = 0044;
},
{
glyphname = E;
lastChange = "2015-02-12 17:11:39 +0000";
layers = (
{
background = {
paths = (
{
closed = 1;
nodes = (
"1246 10 LINE",
"1246 270 LINE",
"1209 270 LINE",
"1209 47 LINE",
"91 47 LINE",
"91 10 LINE"
);
},
{
closed = 1;
nodes = (
"388 36 LINE",
"388 684 LINE",
"352 684 LINE",
"352 36 LINE"
);
},
{
closed = 1;
nodes = (
"841 372 LINE",
"841 409 LINE",
"370 409 LINE",
"370 372 LINE"
);
},
{
closed = 1;
nodes = (
"860 206 LINE",
"860 557 LINE",
"823 557 LINE",
"823 206 LINE"
);
},
{
closed = 1;
nodes = (
"1211 663 LINE",
"1211 447 LINE",
"1248 447 LINE",
"1248 700 LINE",
"96 700 LINE",
"95 663 LINE"
);
}
);
};
layerId = "B29C398E-974A-40D0-A0A0-00935056D4B4";
name = "Light Extended";
paths = (
{
closed = 1;
nodes = (
"875 0 LINE",
"875 189 LINE",
"849 189 LINE",
"849 26 LINE",
"50 26 LINE",
"50 0 LINE"
);
},
{
closed = 1;
nodes = (
"591 250 LINE",
"591 276 LINE",
"261 276 LINE",
"261 250 LINE"
);
},
{
closed = 1;
nodes = (
"604 134 LINE",
"604 380 LINE",
"579 380 LINE",
"579 134 LINE"
);
},
{
closed = 1;
nodes = (
"850 474 LINE",
"850 313 LINE",
"876 313 LINE",
"876 500 LINE",
"53 500 LINE",
"53 474 LINE"
);
},
{
closed = 1;
nodes = (
"264 13 LINE",
"264 487 LINE",
"239 487 LINE",
"239 13 LINE"
);
}
);
width = 936;
}
);
unicode = 0045;
},
{
glyphname = F;
lastChange = "2015-02-12 15:55:04 +0000";
layers = (
{
layerId = "B29C398E-974A-40D0-A0A0-00935056D4B4";
name = "Light Extended";
paths = (
{
closed = 1;
nodes = (
"611 230 LINE",
"611 256 LINE",
"261 256 LINE",
"261 230 LINE"
);
},
{
closed = 1;
nodes = (
"624 114 LINE",
"624 360 LINE",
"599 360 LINE",
"599 114 LINE"
);
},
{
closed = 1;
nodes = (
"264 13 LINE",
"264 487 LINE",
"239 487 LINE",
"239 13 LINE"
);
},
{
closed = 1;
nodes = (
"460 0 LINE",
"460 26 LINE",
"50 26 LINE",
"50 0 LINE"
);
},
{
closed = 1;
nodes = (
"850 474 LINE",
"850 313 LINE",
"876 313 LINE",
"876 500 LINE",
"53 500 LINE",
"53 474 LINE"
);
}
);
width = 886;
}
);
unicode = 0046;
},
{
glyphname = G;
lastChange = "2015-02-12 17:58:21 +0000";
layers = (
{
layerId = "B29C398E-974A-40D0-A0A0-00935056D4B4";
name = "Light Extended";
paths = (
{
closed = 1;
nodes = (
"818 363 LINE",
"841 365 LINE",
"738 467 OFFCURVE",
"621 516 OFFCURVE",
"466 516 CURVE SMOOTH",
"341 516 OFFCURVE",
"237 480 OFFCURVE",
"174 425 CURVE SMOOTH",
"111 370 OFFCURVE",
"80 298 OFFCURVE",
"80 227 CURVE SMOOTH",
"80 155 OFFCURVE",
"111 84 OFFCURVE",
"174 31 CURVE SMOOTH",
"236 -22 OFFCURVE",
"340 -57 OFFCURVE",
"464 -57 CURVE SMOOTH",
"624 -57 OFFCURVE",
"703 -20 OFFCURVE",
"768 29 CURVE SMOOTH",
"832 78 OFFCURVE",
"863 158 OFFCURVE",
"863 206 CURVE",
"831 206 LINE",
"831 170 OFFCURVE",
"811 95 OFFCURVE",
"749 47 CURVE SMOOTH",
"690 1 OFFCURVE",
"617 -31 OFFCURVE",
"464 -31 CURVE SMOOTH",
"345 -31 OFFCURVE",
"247 2 OFFCURVE",
"191 50 CURVE SMOOTH",
"133 99 OFFCURVE",
"106 162 OFFCURVE",
"106 227 CURVE SMOOTH",
"106 291 OFFCURVE",
"133 356 OFFCURVE",
"191 406 CURVE SMOOTH",
"248 456 OFFCURVE",
"346 490 OFFCURVE",
"466 490 CURVE SMOOTH",
"590 490 OFFCURVE",
"721 461 OFFCURVE",
"843 330 CURVE",
"843 500 LINE",
"818 500 LINE"
);
},
{
closed = 1;
nodes = (
"863 226 LINE",
"453 226 LINE",
"453 200 LINE",
"863 200 LINE"
);
}
);
width = 913;
}
);
unicode = 0047;
},
{
glyphname = H;
lastChange = "2015-02-12 15:58:24 +0000";
layers = (
{
layerId = "B29C398E-974A-40D0-A0A0-00935056D4B4";
name = "Light Extended";
paths = (
{
closed = 1;
nodes = (
"406 -1 LINE",
"406 25 LINE",
"50 25 LINE",
"50 -1 LINE"
);
},
{
closed = 1;
nodes = (
"264 11 LINE",
"264 487 LINE",
"239 487 LINE",
"239 11 LINE"
);
},
{
closed = 1;
nodes = (
"406 474 LINE",
"406 500 LINE",
"50 500 LINE",
"50 474 LINE"
);
},
{
closed = 1;
nodes = (
"1126 25 LINE",
"770 25 LINE",
"770 -1 LINE",
"1126 -1 LINE"
);
},
{
closed = 1;
nodes = (
"937 487 LINE",
"912 487 LINE",
"912 11 LINE",
"937 11 LINE"
);
},
{
closed = 1;
nodes = (
"919 256 LINE",
"259 256 LINE",
"259 230 LINE",
"919 230 LINE"
);
},
{
closed = 1;
nodes = (
"1126 500 LINE",
"770 500 LINE",
"770 474 LINE",
"1126 474 LINE"
);
}
);
width = 1176;
}
);
unicode = 0048;
},
{
glyphname = I;
lastChange = "2015-02-12 15:56:25 +0000";
layers = (
{
layerId = "B29C398E-974A-40D0-A0A0-00935056D4B4";
name = "Light Extended";
paths = (
{
closed = 1;
nodes = (
"467 0 LINE",
"467 26 LINE",
"57 26 LINE",
"57 0 LINE"
);
},
{
closed = 1;
nodes = (
"246 487 LINE",
"246 13 LINE",
"271 13 LINE",
"271 487 LINE"
);
},
{
closed = 1;
nodes = (
"50 500 LINE",
"50 474 LINE",
"460 474 LINE",
"460 500 LINE"
);
}
);
width = 517;
}
);
unicode = 0049;
},
{
glyphname = J;
lastChange = "2015-02-12 16:08:50 +0000";
layers = (
{
layerId = "B29C398E-974A-40D0-A0A0-00935056D4B4";
name = "Light Extended";
paths = (
{
closed = 1;
nodes = (
"638 474 LINE",
"638 500 LINE",
"193 500 LINE",
"193 474 LINE"
);
},
{
closed = 1;
nodes = (
"443 10 OFFCURVE",
"319 -33 OFFCURVE",
"239 -33 CURVE SMOOTH",
"150 -33 OFFCURVE",
"25 7 OFFCURVE",
"25 109 CURVE",
"0 109 LINE",
"0 -4 OFFCURVE",
"131 -58 OFFCURVE",
"239 -58 CURVE SMOOTH",
"350 -58 OFFCURVE",
"469 4 OFFCURVE",
"469 120 CURVE SMOOTH",
"469 487 LINE",
"443 487 LINE",
"443 120 LINE SMOOTH"
);
}
);
width = 638;
}
);
unicode = 004A;
},
{
glyphname = L;
lastChange = "2015-02-12 15:59:27 +0000";
layers = (
{
layerId = "B29C398E-974A-40D0-A0A0-00935056D4B4";
name = "Light Extended";
paths = (
{
closed = 1;
nodes = (
"239 13 LINE",
"264 13 LINE",
"264 487 LINE",
"239 487 LINE"
);
},
{
closed = 1;
nodes = (
"50 474 LINE",
"460 474 LINE",
"460 500 LINE",
"50 500 LINE"
);
},
{
closed = 1;
nodes = (
"835 0 LINE",
"835 229 LINE",
"809 229 LINE",
"809 26 LINE",
"50 26 LINE",
"50 0 LINE"
);
}
);
width = 845;
}
);
unicode = 004C;
},
{
glyphname = M;
lastChange = "2015-02-12 15:51:16 +0000";
layers = (
{
layerId = "B29C398E-974A-40D0-A0A0-00935056D4B4";
name = "Light Extended";
paths = (
{
closed = 1;
nodes = (
"406 -1 LINE",
"406 25 LINE",
"50 25 LINE",
"50 -1 LINE"
);
},
{
closed = 1;
nodes = (
"264 11 LINE",
"264 487 LINE",
"239 487 LINE",
"239 11 LINE"
);
},
{
closed = 1;
nodes = (
"1007 500 LINE",
"634 5 LINE",
"258 500 LINE",
"50 500 LINE",
"50 475 LINE",
"245 475 LINE",
"634 -37 LINE",
"1019 475 LINE",
"1217 475 LINE",
"1216 500 LINE"
);
},
{
closed = 1;
nodes = (
"863 25 LINE",
"863 -1 LINE",
"1215 -1 LINE",
"1216 25 LINE"
);
},
{
closed = 1;
nodes = (
"1027 11 LINE",
"1027 487 LINE",
"1001 487 LINE",
"1001 11 LINE"
);
}
);
width = 1267;
}
);
unicode = 004D;
},
{
glyphname = N;
lastChange = "2015-02-12 15:51:10 +0000";
layers = (
{
background = {
paths = (
{
closed = 1;
nodes = (
"579 8 LINE",
"579 45 LINE",
"71 45 LINE",
"71 8 LINE"
);
},
{
closed = 1;
nodes = (
"377 26 LINE",
"377 682 LINE",
"341 682 LINE",
"341 26 LINE"
);
},
{
closed = 1;
nodes = (
"1438 700 LINE",
"905 17 LINE",
"368 700 LINE",
"71 700 LINE",
"71 664 LINE",
"350 664 LINE",
"905 -43 LINE",
"1456 664 LINE",
"1738 664 LINE",
"1737 700 LINE"
);
},
{
closed = 1;
nodes = (
"1232 45 LINE",
"1232 8 LINE",
"1735 8 LINE",
"1736 45 LINE"
);
},
{
closed = 1;
nodes = (
"1466 26 LINE",
"1466 682 LINE",
"1429 682 LINE",
"1429 26 LINE"
);
}
);
};
layerId = "B29C398E-974A-40D0-A0A0-00935056D4B4";
name = "Light Extended";
paths = (
{
closed = 1;
nodes = (
"406 -1 LINE",
"406 25 LINE",
"50 25 LINE",
"50 -1 LINE"
);
},
{
closed = 1;
nodes = (
"264 11 LINE",
"264 487 LINE",
"239 487 LINE",
"239 11 LINE"
);
},
{
closed = 1;
nodes = (
"929 487 LINE",
"929 15 LINE",
"258 500 LINE",
"50 500 LINE",
"50 475 LINE",
"245 475 LINE",
"957 -37 LINE",
"956 487 LINE"
);
},
{
closed = 1;
nodes = (
"790 500 LINE",
"790 474 LINE",
"1146 474 LINE",
"1146 500 LINE"
);
}
);
width = 1146;
}
);
unicode = 004E;
},
{
glyphname = O;
lastChange = "2015-02-12 15:52:05 +0000";
layers = (
{
layerId = "B29C398E-974A-40D0-A0A0-00935056D4B4";
name = "Light Extended";
paths = (
{
closed = 1;
nodes = (
"805 168 OFFCURVE",
"777 103 OFFCURVE",
"720 53 CURVE SMOOTH",
"662 3 OFFCURVE",
"575 -31 OFFCURVE",
"454 -31 CURVE",
"335 -31 OFFCURVE",
"247 2 OFFCURVE",
"191 50 CURVE SMOOTH",
"133 99 OFFCURVE",
"106 162 OFFCURVE",
"106 227 CURVE",
"106 291 OFFCURVE",
"133 356 OFFCURVE",
"191 406 CURVE SMOOTH",
"248 456 OFFCURVE",
"336 490 OFFCURVE",
"456 490 CURVE",
"576 490 OFFCURVE",
"663 456 OFFCURVE",
"720 408 CURVE SMOOTH",
"777 360 OFFCURVE",
"805 296 OFFCURVE",
"805 232 CURVE"
);
},
{
closed = 1;
nodes = (
"830 303 OFFCURVE",
"800 375 OFFCURVE",
"737 428 CURVE SMOOTH",
"674 481 OFFCURVE",
"581 516 OFFCURVE",
"456 516 CURVE",
"331 516 OFFCURVE",
"237 480 OFFCURVE",
"174 425 CURVE SMOOTH",
"111 370 OFFCURVE",
"80 298 OFFCURVE",
"80 227 CURVE",
"80 155 OFFCURVE",
"111 84 OFFCURVE",
"174 31 CURVE SMOOTH",
"236 -22 OFFCURVE",
"330 -57 OFFCURVE",
"454 -57 CURVE",
"580 -57 OFFCURVE",
"674 -21 OFFCURVE",
"737 34 CURVE SMOOTH",
"800 88 OFFCURVE",
"830 160 OFFCURVE",
"830 232 CURVE"
);
}
);
width = 910;
}
);
unicode = 004F;
},
{
glyphname = P;
lastChange = "2015-02-12 15:51:33 +0000";
layers = (
{
layerId = "B29C398E-974A-40D0-A0A0-00935056D4B4";
name = "Light Extended";
paths = (
{
closed = 1;
nodes = (
"264 13 LINE",
"264 487 LINE",
"239 487 LINE",
"239 13 LINE"
);
},
{
closed = 1;
nodes = (
"460 0 LINE",
"460 26 LINE",
"50 26 LINE",
"50 0 LINE"
);
},
{
closed = 1;
nodes = (
"721 177 LINE",
"818 177 OFFCURVE",
"888 246 OFFCURVE",
"888 337 CURVE SMOOTH",
"888 438 OFFCURVE",
"826 500 OFFCURVE",
"721 500 CURVE",
"50 500 LINE",
"50 474 LINE",
"721 474 LINE",
"812 474 OFFCURVE",
"862 420 OFFCURVE",
"862 337 CURVE SMOOTH",
"862 256 OFFCURVE",
"799 202 OFFCURVE",
"721 202 CURVE",
"252 202 LINE",
"252 177 LINE"
);
}
);
width = 898;
}
);
unicode = 0050;
},
{
glyphname = Q;
lastChange = "2015-02-12 15:52:09 +0000";
layers = (
{
layerId = "B29C398E-974A-40D0-A0A0-00935056D4B4";
name = "Light Extended";
paths = (
{
closed = 1;
nodes = (
"340 99 LINE SMOOTH",
"362 99 OFFCURVE",
"381 95 OFFCURVE",
"397 89 CURVE SMOOTH",
"425 77 OFFCURVE",
"445 59 OFFCURVE",
"464 34 CURVE SMOOTH",
"493 -2 OFFCURVE",
"516 -49 OFFCURVE",
"551 -88 CURVE SMOOTH",
"597 -138 OFFCURVE",
"645 -156 OFFCURVE",
"720 -156 CURVE SMOOTH",
"828 -156 OFFCURVE",
"914 -82 OFFCURVE",
"914 31 CURVE",
"889 31 LINE",
"889 -71 OFFCURVE",
"809 -131 OFFCURVE",
"720 -131 CURVE SMOOTH",
"628 -131 OFFCURVE",
"585 -96 OFFCURVE",
"541 -32 CURVE SMOOTH",
"517 2 OFFCURVE",
"496 40 OFFCURVE",
"466 72 CURVE SMOOTH",
"452 87 OFFCURVE",
"434 101 OFFCURVE",
"413 110 CURVE SMOOTH",
"393 119 OFFCURVE",
"368 124 OFFCURVE",
"340 124 CURVE SMOOTH",
"126 124 LINE",
"126 99 LINE"
);
},
{
closed = 1;
nodes = (
"805 178 OFFCURVE",
"777 113 OFFCURVE",
"720 63 CURVE SMOOTH",
"662 13 OFFCURVE",
"575 -21 OFFCURVE",
"454 -21 CURVE",
"335 -21 OFFCURVE",
"247 12 OFFCURVE",
"191 60 CURVE SMOOTH",
"133 109 OFFCURVE",
"106 172 OFFCURVE",
"106 237 CURVE",
"106 301 OFFCURVE",
"133 366 OFFCURVE",
"191 416 CURVE SMOOTH",
"248 466 OFFCURVE",
"336 500 OFFCURVE",
"456 500 CURVE",
"576 500 OFFCURVE",
"663 466 OFFCURVE",
"720 418 CURVE SMOOTH",
"777 370 OFFCURVE",
"805 306 OFFCURVE",
"805 242 CURVE"
);
},
{
closed = 1;
nodes = (
"830 313 OFFCURVE",
"800 385 OFFCURVE",
"737 438 CURVE SMOOTH",
"674 491 OFFCURVE",
"581 526 OFFCURVE",
"456 526 CURVE",
"331 526 OFFCURVE",
"237 490 OFFCURVE",
"174 435 CURVE SMOOTH",
"111 380 OFFCURVE",
"80 308 OFFCURVE",
"80 237 CURVE",
"80 165 OFFCURVE",
"111 94 OFFCURVE",
"174 41 CURVE SMOOTH",
"236 -12 OFFCURVE",
"330 -47 OFFCURVE",
"454 -47 CURVE",
"580 -47 OFFCURVE",
"674 -11 OFFCURVE",
"737 44 CURVE SMOOTH",
"800 98 OFFCURVE",
"830 170 OFFCURVE",
"830 242 CURVE"
);
}
);
width = 914;
}
);
unicode = 0051;
},
{
glyphname = R;
lastChange = "2015-02-12 15:51:41 +0000";
layers = (
{
background = {
paths = (
{
closed = 1;
nodes = (
"252 216 OFFCURVE",
"258 216 OFFCURVE",
"268 216 CURVE SMOOTH",
"341 216 OFFCURVE",
"635 216 OFFCURVE",
"663 216 CURVE SMOOTH",
"708 216 OFFCURVE",
"749 230 OFFCURVE",
"780 254 CURVE SMOOTH",
"796 267 OFFCURVE",
"808 281 OFFCURVE",
"817 298 CURVE SMOOTH",
"826 316 OFFCURVE",
"831 335 OFFCURVE",
"831 356 CURVE SMOOTH",
"831 375 OFFCURVE",
"825 393 OFFCURVE",
"817 409 CURVE SMOOTH",
"803 433 OFFCURVE",
"782 454 OFFCURVE",
"755 468 CURVE SMOOTH",
"729 482 OFFCURVE",
"697 490 OFFCURVE",
"663 490 CURVE SMOOTH",
"631 490 OFFCURVE",
"50 490 OFFCURVE",
"50 490 CURVE",
"50 464 LINE",
"50 464 OFFCURVE",
"631 464 OFFCURVE",
"663 464 CURVE SMOOTH",
"703 464 OFFCURVE",
"739 452 OFFCURVE",
"764 431 CURVE SMOOTH",
"777 421 OFFCURVE",
"787 410 OFFCURVE",
"793 397 CURVE SMOOTH",
"800 384 OFFCURVE",
"805 370 OFFCURVE",
"805 356 CURVE SMOOTH",
"805 339 OFFCURVE",
"800 324 OFFCURVE",
"793 310 CURVE SMOOTH",
"783 290 OFFCURVE",
"765 273 OFFCURVE",
"743 261 CURVE SMOOTH",
"721 249 OFFCURVE",
"693 242 OFFCURVE",
"663 242 CURVE SMOOTH",
"631 242 OFFCURVE",
"252 242 OFFCURVE",
"252 242 CURVE",
"252 216 LINE"
);
}
);
};
layerId = "B29C398E-974A-40D0-A0A0-00935056D4B4";
name = "Light Extended";
paths = (
{
closed = 1;
nodes = (
"430 216 LINE SMOOTH",
"596 216 OFFCURVE",
"684 148 OFFCURVE",
"780 47 CURVE SMOOTH",
"938 -119 OFFCURVE",
"1055 -227 OFFCURVE",
"1317 -227 CURVE SMOOTH",
"1468 -227 OFFCURVE",
"1596 -186 OFFCURVE",
"1691 -97 CURVE",
"1673 -78 LINE",
"1584 -161 OFFCURVE",
"1464 -201 OFFCURVE",
"1317 -201 CURVE SMOOTH",
"1120 -201 OFFCURVE",
"987 -127 OFFCURVE",
"877 -17 CURVE SMOOTH",
"702 158 OFFCURVE",
"630 242 OFFCURVE",
"430 242 CURVE SMOOTH",
"351 242 LINE",
"351 216 LINE"
);
},
{
closed = 1;
nodes = (
"265 18 LINE",
"265 477 LINE",
"239 477 LINE",
"239 18 LINE"
);
},
{
closed = 1;
nodes = (
"461 5 LINE",
"461 31 LINE",
"50 31 LINE",
"50 5 LINE"
);
},
{
closed = 1;
nodes = (
"661 217 LINE",
"758 217 OFFCURVE",
"828 286 OFFCURVE",
"828 357 CURVE SMOOTH",
"828 438 OFFCURVE",
"766 500 OFFCURVE",
"661 500 CURVE",
"50 500 LINE",
"50 474 LINE",
"661 474 LINE",
"752 474 OFFCURVE",
"802 420 OFFCURVE",
"802 357 CURVE SMOOTH",
"802 296 OFFCURVE",
"739 242 OFFCURVE",
"661 242 CURVE",
"252 242 LINE",
"252 217 LINE"
);
}
);
width = 941;
}
);
unicode = 0052;
},
{
glyphname = U;
lastChange = "2015-02-12 16:07:01 +0000";
layers = (
{
background = {
paths = (
{
closed = 1;
nodes = (
"1177 228 LINE SMOOTH",
"1177 190 OFFCURVE",
"1165 154 OFFCURVE",
"1141 122 CURVE SMOOTH",
"1107 73 OFFCURVE",
"1048 31 OFFCURVE",
"974 2 CURVE SMOOTH",
"901 -27 OFFCURVE",
"814 -44 OFFCURVE",
"724 -44 CURVE SMOOTH",
"612 -44 OFFCURVE",
"501 -14 OFFCURVE",
"419 35 CURVE SMOOTH",
"378 59 OFFCURVE",
"344 89 OFFCURVE",
"321 122 CURVE SMOOTH",
"298 154 OFFCURVE",
"286 190 OFFCURVE",
"285 228 CURVE",
"285 682 LINE",
"249 682 LINE",
"249 228 LINE SMOOTH",
"249 181 OFFCURVE",
"264 138 OFFCURVE",
"291 100 CURVE SMOOTH",
"331 44 OFFCURVE",
"395 -1 OFFCURVE",
"471 -32 CURVE SMOOTH",
"548 -63 OFFCURVE",
"635 -81 OFFCURVE",
"724 -81 CURVE SMOOTH",
"850 -81 OFFCURVE",
"970 -50 OFFCURVE",
"1061 3 CURVE SMOOTH",
"1106 30 OFFCURVE",
"1145 62 OFFCURVE",
"1171 100 CURVE SMOOTH",
"1199 138 OFFCURVE",
"1214 181 OFFCURVE",
"1214 228 CURVE SMOOTH",
"1214 682 LINE",
"1177 682 LINE"
);
},
{
closed = 1;
nodes = (
"568 663 LINE",
"568 700 LINE",
"-54 700 LINE",
"-54 663 LINE"
);
},
{
closed = 1;
nodes = (
"1514 663 LINE",
"1514 700 LINE",
"892 700 LINE",
"892 663 LINE"
);
}
);
};
layerId = "B29C398E-974A-40D0-A0A0-00935056D4B4";
name = "Light Extended";
paths = (
{
closed = 1;
nodes = (
"824 160 LINE SMOOTH",
"824 133 OFFCURVE",
"815 108 OFFCURVE",
"798 85 CURVE SMOOTH",
"775 51 OFFCURVE",
"733 22 OFFCURVE",
"682 1 CURVE SMOOTH",
"630 -19 OFFCURVE",
"570 -31 OFFCURVE",
"506 -31 CURVE SMOOTH",
"428 -31 OFFCURVE",
"350 -10 OFFCURVE",
"293 25 CURVE SMOOTH",
"264 41 OFFCURVE",
"240 62 OFFCURVE",
"224 85 CURVE SMOOTH",
"208 108 OFFCURVE",
"200 133 OFFCURVE",
"199 160 CURVE",
"199 487 LINE",
"174 487 LINE",
"174 160 LINE SMOOTH",
"174 127 OFFCURVE",
"185 97 OFFCURVE",
"203 70 CURVE SMOOTH",
"231 31 OFFCURVE",
"276 -1 OFFCURVE",
"329 -22 CURVE SMOOTH",
"383 -44 OFFCURVE",
"444 -57 OFFCURVE",
"506 -57 CURVE SMOOTH",
"595 -57 OFFCURVE",
"679 -35 OFFCURVE",
"742 2 CURVE SMOOTH",
"774 21 OFFCURVE",
"801 43 OFFCURVE",
"819 70 CURVE SMOOTH",
"839 97 OFFCURVE",
"850 127 OFFCURVE",
"850 160 CURVE SMOOTH",
"850 487 LINE",
"824 487 LINE"
);
},
{
closed = 1;
nodes = (
"397 474 LINE",
"397 500 LINE",
"-15 500 LINE",
"-15 474 LINE"
);
},
{
closed = 1;
nodes = (
"1039 474 LINE",
"1039 500 LINE",
"624 500 LINE",
"624 474 LINE"
);
}
);
width = 1024;
}
);
unicode = 0055;
},
{
glyphname = V;
lastChange = "2015-02-12 19:33:50 +0000";
layers = (
{
layerId = "B29C398E-974A-40D0-A0A0-00935056D4B4";
name = "Light Extended";
paths = (
{
closed = 1;
nodes = (
"897 500 LINE",
"549 5 LINE",
"198 500 LINE",
"177 487 LINE",
"549 -37 LINE",
"920 490 LINE"
);
},
{
closed = 1;
nodes = (
"364 475 LINE",
"364 501 LINE",
"12 501 LINE",
"11 475 LINE"
);
},
{
closed = 1;
nodes = (
"731 501 LINE",
"731 475 LINE",
"1087 475 LINE",
"1087 501 LINE"
);
}
);
width = 1097;
}
);
unicode = 0056;
},
{
glyphname = Y;
lastChange = "2015-02-12 15:51:53 +0000";
layers = (
{
background = {
paths = (
{
closed = 1;
nodes = (
"648 44 LINE",
"230 44 LINE",
"230 7 LINE",
"685 7 LINE",
"685 216 LINE",
"648 216 LINE"
);
},
{
closed = 1;
nodes = (
"1109 7 LINE",
"1109 44 LINE",
"666 44 LINE",
"666 7 LINE"
);
},
{
closed = 1;
nodes = (
"1056 700 LINE",
"652 228 LINE",
"681 204 LINE",
"1073 663 LINE",
"1444 663 LINE",
"1444 700 LINE"
);
},
{
closed = 1;
nodes = (
"278 700 LINE",
"-110 700 LINE",
"-110 663 LINE",
"261 663 LINE",
"654 204 LINE",
"682 228 LINE"
);
}
);
};
layerId = "B29C398E-974A-40D0-A0A0-00935056D4B4";
name = "Light Extended";
paths = (
{
closed = 1;
nodes = (
"454 26 LINE",
"161 26 LINE",
"161 0 LINE",
"480 0 LINE",
"480 151 LINE",
"454 151 LINE"
);
},
{
closed = 1;
nodes = (
"777 0 LINE",
"777 26 LINE",
"466 26 LINE",
"466 0 LINE"
);
},
{
closed = 1;
nodes = (
"733 500 LINE",
"457 160 LINE",
"477 143 LINE",
"744 474 LINE",
"989 474 LINE",
"989 500 LINE"
);
},
{
closed = 1;
nodes = (
"202 500 LINE",
"-55 500 LINE",
"-55 474 LINE",
"190 474 LINE",
"458 143 LINE",
"478 160 LINE"
);
}
);
width = 934;
}
);
unicode = 0059;
},
{
glyphname = G.alt;
lastChange = "2015-02-12 18:00:38 +0000";
layers = (
{
layerId = "B29C398E-974A-40D0-A0A0-00935056D4B4";
name = "Light Extended";
paths = (
{
closed = 1;
nodes = (
"863 206 LINE",
"838 206 LINE",
"838 0 LINE",
"863 0 LINE"
);
},
{
closed = 1;
nodes = (
"818 363 LINE",
"841 365 LINE",
"738 467 OFFCURVE",
"621 516 OFFCURVE",
"466 516 CURVE SMOOTH",
"341 516 OFFCURVE",
"237 480 OFFCURVE",
"174 425 CURVE SMOOTH",
"111 370 OFFCURVE",
"80 298 OFFCURVE",
"80 227 CURVE SMOOTH",
"80 155 OFFCURVE",
"111 84 OFFCURVE",
"174 31 CURVE SMOOTH",
"236 -22 OFFCURVE",
"330 -57 OFFCURVE",
"454 -57 CURVE SMOOTH",
"604 -57 OFFCURVE",
"703 -10 OFFCURVE",
"768 39 CURVE SMOOTH",
"832 88 OFFCURVE",
"850 148 OFFCURVE",
"850 196 CURVE",
"841 196 LINE",
"841 160 OFFCURVE",
"811 105 OFFCURVE",
"749 57 CURVE SMOOTH",
"690 11 OFFCURVE",
"597 -31 OFFCURVE",
"454 -31 CURVE SMOOTH",
"335 -31 OFFCURVE",
"247 2 OFFCURVE",
"191 50 CURVE SMOOTH",
"133 99 OFFCURVE",
"106 162 OFFCURVE",
"106 227 CURVE SMOOTH",
"106 291 OFFCURVE",
"133 356 OFFCURVE",
"191 406 CURVE SMOOTH",
"248 456 OFFCURVE",
"346 490 OFFCURVE",
"466 490 CURVE SMOOTH",
"590 490 OFFCURVE",
"721 461 OFFCURVE",
"843 330 CURVE",
"843 500 LINE",
"818 500 LINE"
);
},
{
closed = 1;
nodes = (
"863 216 LINE",
"453 216 LINE",
"453 190 LINE",
"863 190 LINE"
);
}
);
width = 1090;
}
);
},
{
glyphname = Q.alt;
lastChange = "2015-02-12 15:52:13 +0000";
layers = (
{
layerId = "B29C398E-974A-40D0-A0A0-00935056D4B4";
name = "Light Extended";
paths = (
{
closed = 1;
nodes = (
"805 168 OFFCURVE",
"777 103 OFFCURVE",
"720 53 CURVE SMOOTH",
"662 3 OFFCURVE",
"575 -31 OFFCURVE",
"454 -31 CURVE",
"335 -31 OFFCURVE",
"247 2 OFFCURVE",
"191 50 CURVE SMOOTH",
"133 99 OFFCURVE",
"106 162 OFFCURVE",
"106 227 CURVE",
"106 291 OFFCURVE",
"133 356 OFFCURVE",
"191 406 CURVE SMOOTH",
"248 456 OFFCURVE",
"336 490 OFFCURVE",
"456 490 CURVE",
"576 490 OFFCURVE",
"663 456 OFFCURVE",
"720 408 CURVE SMOOTH",
"777 360 OFFCURVE",
"805 296 OFFCURVE",
"805 232 CURVE"
);
},
{
closed = 1;
nodes = (
"830 303 OFFCURVE",
"800 375 OFFCURVE",
"737 428 CURVE SMOOTH",
"674 481 OFFCURVE",
"581 516 OFFCURVE",
"456 516 CURVE",
"331 516 OFFCURVE",
"237 480 OFFCURVE",
"174 425 CURVE SMOOTH",
"111 370 OFFCURVE",
"80 298 OFFCURVE",
"80 227 CURVE",
"80 155 OFFCURVE",
"111 84 OFFCURVE",
"174 31 CURVE SMOOTH",
"236 -22 OFFCURVE",
"330 -57 OFFCURVE",
"454 -57 CURVE",
"580 -57 OFFCURVE",
"674 -21 OFFCURVE",
"737 34 CURVE SMOOTH",
"800 88 OFFCURVE",
"830 160 OFFCURVE",
"830 232 CURVE"
);
},
{
closed = 1;
nodes = (
"173 216 LINE SMOOTH",
"339 216 OFFCURVE",
"427 148 OFFCURVE",
"523 47 CURVE SMOOTH",
"681 -119 OFFCURVE",
"798 -227 OFFCURVE",
"1060 -227 CURVE SMOOTH",
"1211 -227 OFFCURVE",
"1339 -186 OFFCURVE",
"1434 -97 CURVE",
"1416 -78 LINE",
"1327 -161 OFFCURVE",
"1207 -201 OFFCURVE",
"1060 -201 CURVE SMOOTH",
"863 -201 OFFCURVE",
"728 -125 OFFCURVE",
"620 -14 CURVE SMOOTH",
"448 162 OFFCURVE",
"383 242 OFFCURVE",
"173 242 CURVE SMOOTH",
"94 242 LINE",
"94 216 LINE"
);
}
);
width = 909;
}
);
},
{
glyphname = R.alt;
lastChange = "2015-02-12 15:51:46 +0000";
layers = (
{
background = {
paths = (
{
closed = 1;
nodes = (
"650 303 LINE SMOOTH",
"682 303 OFFCURVE",
"709 297 OFFCURVE",
"732 288 CURVE SMOOTH",
"772 272 OFFCURVE",
"801 245 OFFCURVE",
"828 210 CURVE SMOOTH",
"869 158 OFFCURVE",
"902 91 OFFCURVE",
"952 36 CURVE SMOOTH",
"978 8 OFFCURVE",
"1008 -17 OFFCURVE",
"1046 -35 CURVE SMOOTH",
"1083 -52 OFFCURVE",
"1128 -62 OFFCURVE",
"1183 -62 CURVE SMOOTH",
"1234 -62 OFFCURVE",
"1278 -51 OFFCURVE",
"1315 -32 CURVE SMOOTH",
"1370 -2 OFFCURVE",
"1409 45 OFFCURVE",
"1434 97 CURVE SMOOTH",
"1459 150 OFFCURVE",
"1470 208 OFFCURVE",
"1470 261 CURVE",
"1434 261 LINE",
"1434 197 OFFCURVE",
"1415 124 OFFCURVE",
"1375 69 CURVE SMOOTH",
"1355 41 OFFCURVE",
"1329 18 OFFCURVE",
"1298 1 CURVE SMOOTH",
"1266 -16 OFFCURVE",
"1229 -26 OFFCURVE",
"1183 -26 CURVE SMOOTH",
"1107 -26 OFFCURVE",
"1055 -4 OFFCURVE",
"1015 27 CURVE SMOOTH",
"984 51 OFFCURVE",
"960 82 OFFCURVE",
"937 115 CURVE SMOOTH",
"903 164 OFFCURVE",
"873 219 OFFCURVE",
"831 264 CURVE SMOOTH",
"810 285 OFFCURVE",
"785 305 OFFCURVE",
"755 318 CURVE SMOOTH",
"726 332 OFFCURVE",
"691 339 OFFCURVE",
"650 339 CURVE SMOOTH",
"537 339 LINE",
"537 303 LINE"
);
},
{
closed = 1;
nodes = (
"377 20 LINE",
"377 675 LINE",
"341 675 LINE",
"341 20 LINE"
);
},
{
closed = 1;
nodes = (
"657 1 LINE",
"657 38 LINE",
"5 38 LINE",
"5 1 LINE"
);
},
{
closed = 1;
nodes = (
"359 303 OFFCURVE",
"369 303 OFFCURVE",
"388 303 CURVE SMOOTH",
"515 303 OFFCURVE",
"1029 303 OFFCURVE",
"1069 303 CURVE SMOOTH",
"1134 303 OFFCURVE",
"1192 322 OFFCURVE",
"1236 357 CURVE SMOOTH",
"1258 375 OFFCURVE",
"1276 396 OFFCURVE",
"1288 420 CURVE SMOOTH",
"1301 445 OFFCURVE",
"1308 472 OFFCURVE",
"1308 502 CURVE SMOOTH",
"1308 529 OFFCURVE",
"1301 555 OFFCURVE",
"1288 578 CURVE SMOOTH",
"1269 613 OFFCURVE",
"1239 642 OFFCURVE",
"1201 662 CURVE SMOOTH",
"1163 682 OFFCURVE",
"1118 694 OFFCURVE",
"1069 694 CURVE SMOOTH",
"1046 694 OFFCURVE",
"793 694 OFFCURVE",
"544 694 CURVE SMOOTH",
"420 694 OFFCURVE",
"298 694 OFFCURVE",
"206 694 CURVE SMOOTH",
"160 694 OFFCURVE",
"122 694 OFFCURVE",
"96 694 CURVE SMOOTH",
"69 694 OFFCURVE",
"54 694 OFFCURVE",
"54 694 CURVE",
"54 657 LINE",
"54 657 OFFCURVE",
"1023 657 OFFCURVE",
"1069 657 CURVE SMOOTH",
"1126 657 OFFCURVE",
"1177 639 OFFCURVE",
"1213 610 CURVE SMOOTH",
"1231 596 OFFCURVE",
"1246 579 OFFCURVE",
"1256 561 CURVE SMOOTH",
"1265 542 OFFCURVE",
"1271 523 OFFCURVE",
"1271 502 CURVE SMOOTH",
"1271 478 OFFCURVE",
"1265 456 OFFCURVE",
"1255 437 CURVE SMOOTH",
"1241 408 OFFCURVE",
"1216 384 OFFCURVE",
"1183 366 CURVE SMOOTH",
"1151 349 OFFCURVE",
"1112 339 OFFCURVE",
"1069 339 CURVE SMOOTH",
"1023 339 OFFCURVE",
"359 339 OFFCURVE",
"359 339 CURVE",
"359 303 LINE"
);
}
);
};
layerId = "B29C398E-974A-40D0-A0A0-00935056D4B4";
name = "Light Extended";
paths = (
{
closed = 1;
nodes = (
"455 212 LINE SMOOTH",
"478 212 OFFCURVE",
"497 208 OFFCURVE",
"513 202 CURVE SMOOTH",
"541 190 OFFCURVE",
"561 172 OFFCURVE",
"580 147 CURVE SMOOTH",
"609 111 OFFCURVE",
"632 64 OFFCURVE",
"667 25 CURVE SMOOTH",
"685 6 OFFCURVE",
"706 -12 OFFCURVE",
"733 -24 CURVE SMOOTH",
"758 -36 OFFCURVE",
"790 -43 OFFCURVE",
"828 -43 CURVE SMOOTH",
"864 -43 OFFCURVE",
"895 -36 OFFCURVE",
"921 -22 CURVE SMOOTH",
"959 -1 OFFCURVE",
"987 32 OFFCURVE",
"1004 68 CURVE SMOOTH",
"1022 105 OFFCURVE",
"1029 146 OFFCURVE",
"1029 183 CURVE",
"1004 183 LINE",
"1004 138 OFFCURVE",
"991 87 OFFCURVE",
"963 48 CURVE SMOOTH",
"949 29 OFFCURVE",
"931 13 OFFCURVE",
"909 1 CURVE SMOOTH",
"887 -11 OFFCURVE",
"861 -18 OFFCURVE",
"828 -18 CURVE SMOOTH",
"775 -18 OFFCURVE",
"739 -3 OFFCURVE",
"711 19 CURVE SMOOTH",
"689 36 OFFCURVE",
"672 57 OFFCURVE",
"656 81 CURVE SMOOTH",
"632 115 OFFCURVE",
"611 153 OFFCURVE",
"582 185 CURVE SMOOTH",
"567 200 OFFCURVE",
"550 214 OFFCURVE",
"529 223 CURVE SMOOTH",
"508 232 OFFCURVE",
"484 237 OFFCURVE",
"455 237 CURVE SMOOTH",
"376 237 LINE",
"376 212 LINE"
);
},
{
closed = 1;
nodes = (
"264 14 LINE",
"264 487 LINE",
"239 487 LINE",
"239 14 LINE"
);
},
{
closed = 1;
nodes = (
"460 1 LINE",
"460 27 LINE",
"50 27 LINE",
"50 0 LINE"
);
},
{
closed = 1;
nodes = (
"252 212 OFFCURVE",
"259 212 OFFCURVE",
"272 212 CURVE SMOOTH",
"361 212 OFFCURVE",
"721 212 OFFCURVE",
"749 212 CURVE SMOOTH",
"794 212 OFFCURVE",
"835 225 OFFCURVE",
"866 250 CURVE SMOOTH",
"881 263 OFFCURVE",
"894 277 OFFCURVE",
"902 294 CURVE SMOOTH",
"911 312 OFFCURVE",
"916 340 OFFCURVE",
"916 361 CURVE SMOOTH",
"916 380 OFFCURVE",
"911 399 OFFCURVE",
"902 415 CURVE SMOOTH",
"889 439 OFFCURVE",
"868 463 OFFCURVE",
"841 477 CURVE SMOOTH",
"814 491 OFFCURVE",
"783 500 OFFCURVE",
"749 500 CURVE SMOOTH",
"733 500 OFFCURVE",
"555 500 OFFCURVE",
"381 500 CURVE SMOOTH",
"294 500 OFFCURVE",
"174 500 OFFCURVE",
"110 500 CURVE SMOOTH",
"82 500 OFFCURVE",
"98 500 OFFCURVE",
"79 500 CURVE",
"50 500 LINE",
"50 474 LINE",
"50 474 OFFCURVE",
"716 474 OFFCURVE",
"749 474 CURVE SMOOTH",
"789 474 OFFCURVE",
"824 461 OFFCURVE",
"849 441 CURVE SMOOTH",
"862 431 OFFCURVE",
"873 415 OFFCURVE",
"880 403 CURVE SMOOTH",
"886 389 OFFCURVE",
"890 376 OFFCURVE",
"890 361 CURVE SMOOTH",
"890 345 OFFCURVE",
"886 319 OFFCURVE",
"879 306 CURVE SMOOTH",
"869 286 OFFCURVE",
"852 269 OFFCURVE",
"828 256 CURVE SMOOTH",
"806 244 OFFCURVE",
"779 237 OFFCURVE",
"749 237 CURVE SMOOTH",
"716 237 OFFCURVE",
"252 237 OFFCURVE",
"252 237 CURVE",
"252 212 LINE"
);
}
);
width = 1029;
}
);
},
{
glyphname = G.alt_two;
lastChange = "2015-02-12 19:23:02 +0000";
layers = (
{
layerId = "B29C398E-974A-40D0-A0A0-00935056D4B4";
name = "Light Extended";
paths = (
{
closed = 1;
nodes = (
"863 206 CURVE",
"838 206 LINE",
"819 100 OFFCURVE",
"711 -31 OFFCURVE",
"484 -31 CURVE SMOOTH",
"365 -31 OFFCURVE",
"247 2 OFFCURVE",
"191 50 CURVE SMOOTH",
"133 99 OFFCURVE",
"106 162 OFFCURVE",
"106 227 CURVE SMOOTH",
"106 291 OFFCURVE",
"133 356 OFFCURVE",
"191 406 CURVE SMOOTH",
"248 456 OFFCURVE",
"346 490 OFFCURVE",
"466 490 CURVE SMOOTH",
"590 490 OFFCURVE",
"721 461 OFFCURVE",
"843 330 CURVE",
"843 500 LINE",
"818 500 LINE",
"818 363 LINE",
"841 365 LINE",
"738 467 OFFCURVE",
"621 516 OFFCURVE",
"466 516 CURVE SMOOTH",
"341 516 OFFCURVE",
"237 480 OFFCURVE",
"174 425 CURVE SMOOTH",
"111 370 OFFCURVE",
"80 298 OFFCURVE",
"80 227 CURVE SMOOTH",
"80 155 OFFCURVE",
"111 84 OFFCURVE",
"174 31 CURVE SMOOTH",
"236 -22 OFFCURVE",
"360 -57 OFFCURVE",
"484 -57 CURVE SMOOTH",
"724 -57 OFFCURVE",
"839 78 OFFCURVE"
);
},
{
closed = 1;
nodes = (
"863 216 LINE",
"453 216 LINE",
"453 190 LINE",
"863 190 LINE"
);
}
);
width = 943;
}
);
},
{
glyphname = original;
lastChange = "2015-02-12 04:30:39 +0000";
layers = (
{
layerId = "B29C398E-974A-40D0-A0A0-00935056D4B4";
name = "Light Extended";
paths = (
{
closed = 1;
nodes = (
"0 700 LINE",
"0 700 LINE",
"0 700 LINE",
"0 700 LINE",
"0 700 LINE",
"0 700 LINE"
);
},
{
closed = 1;
nodes = (
"0 700 LINE",
"0 700 LINE",
"0 700 LINE",
"0 700 LINE"
);
},
{
closed = 1;
nodes = (
"0 700 LINE",
"0 700 LINE",
"0 700 LINE",
"0 700 LINE"
);
},
{
closed = 1;
nodes = (
"0 700 LINE",
"0 700 LINE",
"0 700 LINE",
"0 700 LINE"
);
},
{
closed = 1;
nodes = (
"0 700 LINE",
"0 700 LINE",
"0 700 LINE",
"0 700 LINE"
);
},
{
closed = 1;
nodes = (
"0 700 LINE",
"0 700 LINE",
"0 700 LINE",
"0 700 LINE"
);
},
{
closed = 1;
nodes = (
"0 700 LINE",
"0 700 LINE",
"0 700 LINE",
"0 700 LINE",
"0 700 LINE",
"0 700 LINE",
"0 700 LINE",
"0 700 LINE",
"0 700 LINE",
"0 700 LINE"
);
},
{
closed = 1;
nodes = (
"0 700 LINE",
"0 700 LINE",
"0 700 LINE",
"0 700 LINE",
"0 700 LINE",
"0 700 LINE",
"0 700 LINE",
"0 700 LINE"
);
},
{
closed = 1;
nodes = (
"0 700 LINE",
"0 700 LINE",
"0 700 LINE",
"0 700 LINE"
);
}
);
width = 0;
}
);
},
